#Comment line ignore any data following # character 
#Hierarchical Translation and Rotation (.htr) file 
[Header]	
#Header keywords are followed by a single value 
FileType HTR		#Single word string
DataType HTRS		#Translation followed by rotation and scale data
FileVersion 1		#integer
NumSegments 84		#integer
NumFrames 2		#integer
DataFrameRate 30		#integer, data frame rate in this file
EulerRotationOrder ZYX
CalibrationUnits mm
RotationUnits Degrees
GlobalAxisofGravity Y
BoneLengthAxis Y
ScaleFactor 1.00
[SegmentNames&Hierarchy]
#CHILD	PARENT
MASTER GLOBAL
root MASTER
chest root
L_mid_tent01 root
R_mid_tent01 root
spine01 root
Bip01_Neck chest
L_humerus chest
R_humerus chest
weapon_bone chest
Bip01_Head Bip01_Neck
eye_left_bone Bip01_Head
eye_right_bone Bip01_Head
L_forearm L_humerus
L_front_hand L_forearm
L_weapon_bone L_forearm
L_front_hand01_01 L_front_hand
L_front_hand02_01 L_front_hand
L_front_hand03_01 L_front_hand
L_front_hand01_02 L_front_hand01_01
L_front_hand02_02 L_front_hand02_01
L_front_hand03_02 L_front_hand03_01
R_forearm R_humerus
R_front_hand R_forearm
R_weapon_bone R_forearm
R_front_hand01_01 R_front_hand
R_front_hand02_01 R_front_hand
R_front_hand03_01 R_front_hand
R_front_hand01_02 R_front_hand01_01
R_front_hand02_02 R_front_hand02_01
R_front_hand03_02 R_front_hand03_01
null_rope01_connect L_mid_tent01
Rope1_Seg01 null_rope01_connect
Rope1_Seg02 Rope1_Seg01
Rope1_Seg03 Rope1_Seg02
Rope1_Seg04 Rope1_Seg03
Rope1_Seg05 Rope1_Seg04
Rope1_Seg06 Rope1_Seg05
Rope1_Seg07 Rope1_Seg06
Rope1_Seg09 Rope1_Seg07
L_mid_hand01 Rope1_Seg09
L_mid_hand02 Rope1_Seg09
L_mid_hand03 Rope1_Seg09
null_rope02_connect R_mid_tent01
Rope2_Seg01 null_rope02_connect
Rope2_Seg02 Rope2_Seg01
Rope2_Seg03 Rope2_Seg02
Rope2_Seg04 Rope2_Seg03
Rope2_Seg05 Rope2_Seg04
Rope2_Seg06 Rope2_Seg05
Rope2_Seg07 Rope2_Seg06
Rope2_Seg09 Rope2_Seg07
R_mid_hand01 Rope2_Seg09
R_mid_hand02 Rope2_Seg09
R_mid_hand03 Rope2_Seg09
spine02 spine01
spine03 spine02
pelvis spine03
null_rope03_connect pelvis
null_rope04_connect pelvis
Rope3_Seg01 null_rope03_connect
Rope3_Seg02 Rope3_Seg01
Rope3_Seg03 Rope3_Seg02
Rope3_Seg04 Rope3_Seg03
Rope3_Seg05 Rope3_Seg04
Rope3_Seg06 Rope3_Seg05
Rope3_Seg07 Rope3_Seg06
Rope3_Seg08 Rope3_Seg07
Rope3_Seg09 Rope3_Seg08
R_rear_hand01 Rope3_Seg09
R_rear_hand02 Rope3_Seg09
R_rear_hand03 Rope3_Seg09
Rope4_Seg01 null_rope04_connect
Rope4_Seg02 Rope4_Seg01
Rope4_Seg03 Rope4_Seg02
Rope4_Seg04 Rope4_Seg03
Rope4_Seg05 Rope4_Seg04
Rope4_Seg06 Rope4_Seg05
Rope4_Seg07 Rope4_Seg06
Rope4_Seg08 Rope4_Seg07
Rope4_Seg09 Rope4_Seg08
L_rear_hand01 Rope4_Seg09
L_rear_hand02 Rope4_Seg09
L_rear_hand03 Rope4_Seg09
[BasePosition]
#SegmentName Tx, Ty, Tz, Rx, Ry, Rz, BoneLength
MASTER 0.000000 0.000000 0.000000 -90.000000 0.000000 0.000000 10.000000 
root 0.000000 0.000000 0.000000 0.000000 0.000000 0.000000 10.000000 
chest 0.000000 0.000000 0.000000 0.000000 0.000000 0.000000 10.000000 
L_mid_tent01 0.000000 0.000000 0.000000 0.000000 0.000000 0.000000 10.000000 
R_mid_tent01 0.000000 0.000000 0.000000 0.000000 0.000000 0.000000 10.000000 
spine01 0.000000 0.000000 0.000000 0.000000 0.000000 0.000000 10.000000 
Bip01_Neck 0.000000 0.000000 0.000000 0.000000 0.000000 0.000000 10.000000 
L_humerus 0.000000 0.000000 0.000000 0.000000 0.000000 0.000000 10.000000 
R_humerus 0.000000 0.000000 0.000000 0.000000 0.000000 0.000000 10.000000 
weapon_bone 0.000000 0.000000 0.000000 0.000000 0.000000 0.000000 10.000000 
Bip01_Head 0.000000 0.000000 0.000000 0.000000 0.000000 0.000000 10.000000 
eye_left_bone 0.000000 0.000000 0.000000 0.000000 0.000000 0.000000 10.000000 
eye_right_bone 0.000000 0.000000 0.000000 0.000000 0.000000 0.000000 10.000000 
L_forearm 0.000000 0.000000 0.000000 0.000000 0.000000 0.000000 10.000000 
L_front_hand 0.000000 0.000000 0.000000 0.000000 0.000000 0.000000 10.000000 
L_weapon_bone 0.000000 0.000000 0.000000 0.000000 0.000000 0.000000 10.000000 
L_front_hand01_01 0.000000 0.000000 0.000000 0.000000 0.000000 0.000000 10.000000 
L_front_hand02_01 0.000000 0.000000 0.000000 0.000000 0.000000 0.000000 10.000000 
L_front_hand03_01 0.000000 0.000000 0.000000 0.000000 0.000000 0.000000 10.000000 
L_front_hand01_02 0.000000 0.000000 0.000000 0.000000 0.000000 0.000000 10.000000 
L_front_hand02_02 0.000000 0.000000 0.000000 0.000000 0.000000 0.000000 10.000000 
L_front_hand03_02 0.000000 0.000000 0.000000 0.000000 0.000000 0.000000 10.000000 
R_forearm 0.000000 0.000000 0.000000 0.000000 0.000000 0.000000 10.000000 
R_front_hand 0.000000 0.000000 0.000000 0.000000 0.000000 0.000000 10.000000 
R_weapon_bone 0.000000 0.000000 0.000000 0.000000 0.000000 0.000000 10.000000 
R_front_hand01_01 0.000000 0.000000 0.000000 0.000000 0.000000 0.000000 10.000000 
R_front_hand02_01 0.000000 0.000000 0.000000 0.000000 0.000000 0.000000 10.000000 
R_front_hand03_01 0.000000 0.000000 0.000000 0.000000 0.000000 0.000000 10.000000 
R_front_hand01_02 0.000000 0.000000 0.000000 0.000000 0.000000 0.000000 10.000000 
R_front_hand02_02 0.000000 0.000000 0.000000 0.000000 0.000000 0.000000 10.000000 
R_front_hand03_02 0.000000 0.000000 0.000000 0.000000 0.000000 0.000000 10.000000 
null_rope01_connect 0.000000 0.000000 0.000000 0.000000 0.000000 0.000000 10.000000 
Rope1_Seg01 0.000000 0.000000 0.000000 0.000000 0.000000 0.000000 10.000000 
Rope1_Seg02 0.000000 0.000000 0.000000 0.000000 0.000000 0.000000 10.000000 
Rope1_Seg03 0.000000 0.000000 0.000000 0.000000 0.000000 0.000000 10.000000 
Rope1_Seg04 0.000000 0.000000 0.000000 0.000000 0.000000 0.000000 10.000000 
Rope1_Seg05 0.000000 0.000000 0.000000 0.000000 0.000000 0.000000 10.000000 
Rope1_Seg06 0.000000 0.000000 0.000000 0.000000 0.000000 0.000000 10.000000 
Rope1_Seg07 0.000000 0.000000 0.000000 0.000000 0.000000 0.000000 10.000000 
Rope1_Seg09 0.000000 0.000000 0.000000 0.000000 0.000000 0.000000 10.000000 
L_mid_hand01 0.000000 0.000000 0.000000 0.000000 0.000000 0.000000 10.000000 
L_mid_hand02 0.000000 0.000000 0.000000 0.000000 0.000000 0.000000 10.000000 
L_mid_hand03 0.000000 0.000000 0.000000 0.000000 0.000000 0.000000 10.000000 
null_rope02_connect 0.000000 0.000000 0.000000 0.000000 0.000000 0.000000 10.000000 
Rope2_Seg01 0.000000 0.000000 0.000000 0.000000 0.000000 0.000000 10.000000 
Rope2_Seg02 0.000000 0.000000 0.000000 0.000000 0.000000 0.000000 10.000000 
Rope2_Seg03 0.000000 0.000000 0.000000 0.000000 0.000000 0.000000 10.000000 
Rope2_Seg04 0.000000 0.000000 0.000000 0.000000 0.000000 0.000000 10.000000 
Rope2_Seg05 0.000000 0.000000 0.000000 0.000000 0.000000 0.000000 10.000000 
Rope2_Seg06 0.000000 0.000000 0.000000 0.000000 0.000000 0.000000 10.000000 
Rope2_Seg07 0.000000 0.000000 0.000000 0.000000 0.000000 0.000000 10.000000 
Rope2_Seg09 0.000000 0.000000 0.000000 0.000000 0.000000 0.000000 10.000000 
R_mid_hand01 0.000000 0.000000 0.000000 0.000000 0.000000 0.000000 10.000000 
R_mid_hand02 0.000000 0.000000 0.000000 0.000000 0.000000 0.000000 10.000000 
R_mid_hand03 0.000000 0.000000 0.000000 0.000000 0.000000 0.000000 10.000000 
spine02 0.000000 0.000000 0.000000 0.000000 0.000000 0.000000 10.000000 
spine03 0.000000 0.000000 0.000000 0.000000 0.000000 0.000000 10.000000 
pelvis 0.000000 0.000000 0.000000 0.000000 0.000000 0.000000 10.000000 
null_rope03_connect 0.000000 0.000000 0.000000 0.000000 0.000000 0.000000 10.000000 
null_rope04_connect 0.000000 0.000000 0.000000 0.000000 0.000000 0.000000 10.000000 
Rope3_Seg01 0.000000 0.000000 0.000000 0.000000 0.000000 0.000000 10.000000 
Rope3_Seg02 0.000000 0.000000 0.000000 0.000000 0.000000 0.000000 10.000000 
Rope3_Seg03 0.000000 0.000000 0.000000 0.000000 0.000000 0.000000 10.000000 
Rope3_Seg04 0.000000 0.000000 0.000000 0.000000 0.000000 0.000000 10.000000 
Rope3_Seg05 0.000000 0.000000 0.000000 0.000000 0.000000 0.000000 10.000000 
Rope3_Seg06 0.000000 0.000000 0.000000 0.000000 0.000000 0.000000 10.000000 
Rope3_Seg07 0.000000 0.000000 0.000000 0.000000 0.000000 0.000000 10.000000 
Rope3_Seg08 0.000000 0.000000 0.000000 0.000000 0.000000 0.000000 10.000000 
Rope3_Seg09 0.000000 0.000000 0.000000 0.000000 0.000000 0.000000 10.000000 
R_rear_hand01 0.000000 0.000000 0.000000 0.000000 0.000000 0.000000 10.000000 
R_rear_hand02 0.000000 0.000000 0.000000 0.000000 0.000000 0.000000 10.000000 
R_rear_hand03 0.000000 0.000000 0.000000 0.000000 0.000000 0.000000 10.000000 
Rope4_Seg01 0.000000 0.000000 0.000000 0.000000 0.000000 0.000000 10.000000 
Rope4_Seg02 0.000000 0.000000 0.000000 0.000000 0.000000 0.000000 10.000000 
Rope4_Seg03 0.000000 0.000000 0.000000 0.000000 0.000000 0.000000 10.000000 
Rope4_Seg04 0.000000 0.000000 0.000000 0.000000 0.000000 0.000000 10.000000 
Rope4_Seg05 0.000000 0.000000 0.000000 0.000000 0.000000 0.000000 10.000000 
Rope4_Seg06 0.000000 0.000000 0.000000 0.000000 0.000000 0.000000 10.000000 
Rope4_Seg07 0.000000 0.000000 0.000000 0.000000 0.000000 0.000000 10.000000 
Rope4_Seg08 0.000000 0.000000 0.000000 0.000000 0.000000 0.000000 10.000000 
Rope4_Seg09 0.000000 0.000000 0.000000 0.000000 0.000000 0.000000 10.000000 
L_rear_hand01 0.000000 0.000000 0.000000 0.000000 0.000000 0.000000 10.000000 
L_rear_hand02 0.000000 0.000000 0.000000 0.000000 0.000000 0.000000 10.000000 
L_rear_hand03 0.000000 0.000000 0.000000 0.000000 0.000000 0.000000 10.000000 
#Beginning of Data. Separated by tabs
#Fr	Tx	Ty	Tz	Rx	Ry	Rz	SF
[MASTER]
7 838.023865 0.000127 0.000000 0.001660 0.001660 0.001660 838.023865
8 1049.268311 0.000158 0.000000 0.001660 0.001660 0.001660 1049.268433
[root]
7 -16.502304 -62.822105 1003.400696 153.494781 -27.676846 -87.816154 1005.500793
8 -16.502304 -62.822105 936.727661 121.703712 -27.677267 -87.441277 938.976929
[chest]
7 -84.512650 -34.090519 0.000000 -122.466751 0.979563 165.678070 91.129311
8 -84.512650 -34.090519 0.000000 -154.359390 -3.608362 168.224640 91.129311
[L_mid_tent01]
7 27.485914 22.070648 -251.116104 -30.093735 2.785302 17.925568 253.578156
8 27.500427 22.062346 -251.209320 -30.354939 1.642238 16.717007 253.671310
[R_mid_tent01]
7 23.228794 24.509907 226.238495 -153.665451 -45.375603 26.036753 228.744751
8 23.228794 24.509907 226.238495 -154.947052 -46.456409 27.586313 228.744751
[spine01]
7 -0.361383 -0.195265 0.000000 8.613603 1.009557 -3.498956 0.410763
8 -0.361383 -0.195265 0.000000 11.790051 1.180231 -3.944608 0.410763
[Bip01_Neck]
7 165.484543 71.581718 0.000119 175.896118 1.177290 24.871183 180.302734
8 165.484543 71.581718 0.000119 175.896118 1.177290 24.871183 180.302734
[L_humerus]
7 -13.983130 -135.272980 -120.471481 170.940826 81.564224 -99.189163 181.680161
8 -13.983130 -135.272980 -120.471481 170.940796 81.564270 -99.189209 181.680161
[R_humerus]
7 -13.983309 -135.273102 125.287651 -159.666046 -68.957870 -101.166077 184.909012
8 -13.983309 -135.273102 125.287651 -159.666046 -68.957870 -101.166077 184.909012
[weapon_bone]
7 235.964890 -300.705902 0.000000 0.000000 -89.951546 -128.212341 382.234833
8 235.964890 -300.705902 0.000000 0.000000 -89.951546 -128.212341 382.234833
[Bip01_Head]
7 261.355865 108.959541 -2.864249 2.248028 5.843376 -62.458344 283.173584
8 261.355865 108.959549 -2.864256 2.248029 5.843377 -62.458344 283.173584
[eye_left_bone]
7 -24.626970 125.451866 -64.772606 0.000000 -90.000000 -99.840431 143.318359
8 -24.626970 125.451866 -64.772606 0.000000 -90.000000 -99.840431 143.318359
[eye_right_bone]
7 -24.626970 125.451866 64.327362 0.000000 -89.972023 80.159386 143.117676
8 -24.626970 125.451866 64.327362 0.000000 -89.972023 80.159393 143.117676
[L_forearm]
7 322.776093 0.000000 -0.000119 0.000471 0.002300 -66.859398 322.776093
8 322.776093 0.000000 -0.000119 0.000471 0.002300 -66.859398 322.776093
[L_front_hand]
7 241.149185 -0.042021 -3.300071 -178.667953 -1.835447 -27.422350 241.171753
8 241.149185 -0.042021 -3.300071 -178.667953 -1.835447 -27.422342 241.171753
[L_weapon_bone]
7 156.183838 0.000000 0.000000 0.002004 0.001222 27.225914 156.183838
8 156.183838 0.000000 0.000000 0.001926 0.001350 19.914928 156.183838
[L_front_hand01_01]
7 86.095154 20.947098 -0.655860 0.405585 -0.442306 -4.620490 88.609184
8 86.095154 20.947098 -0.655860 0.404495 -0.443303 -4.338367 88.609184
[L_front_hand02_01]
7 86.935165 -11.437475 24.513514 116.959450 3.630817 1.495453 91.046425
8 86.935165 -11.437475 24.513514 116.952362 3.380130 1.370284 91.046425
[L_front_hand03_01]
7 86.637497 -14.123976 -20.424902 -118.420097 -4.656303 -0.152527 90.126129
8 86.637497 -14.123976 -20.424902 -118.409279 -4.415617 -0.286072 90.126129
[L_front_hand01_02]
7 71.020905 -0.000179 0.000030 0.001496 0.001809 -10.800867 71.020905
8 71.020905 -0.000179 0.000030 0.001468 0.001832 -12.590645 71.020905
[L_front_hand02_02]
7 71.020927 -0.000119 0.000060 0.001496 0.001809 -10.800867 71.020927
8 71.020927 -0.000119 0.000060 0.001468 0.001832 -12.590645 71.020927
[L_front_hand03_02]
7 71.020905 -0.000060 0.000060 0.001496 0.001809 -10.800867 71.020905
8 71.020905 -0.000060 0.000060 0.001468 0.001832 -12.590645 71.020905
[R_forearm]
7 322.776428 -0.000060 0.000030 0.199694 -0.075621 -69.903069 322.776428
8 322.776428 -0.000060 0.000030 0.199694 -0.075621 -69.903069 322.776428
[R_front_hand]
7 238.847015 -0.006795 2.210259 -1.531694 0.790216 -51.443054 238.857239
8 238.847015 -0.006795 2.210259 -1.531694 0.790216 -51.443054 238.857239
[R_weapon_bone]
7 155.664093 0.002503 -0.000030 0.002933 0.002223 -127.925125 155.664078
8 155.664093 0.002503 -0.000030 0.003099 0.001986 -118.925354 155.664078
[R_front_hand01_01]
7 87.624611 14.231146 22.918642 -116.960213 3.496675 -1.324139 91.683487
8 87.624611 14.231146 22.918642 -116.953247 3.250213 -1.196416 91.683487
[R_front_hand02_01]
7 89.356956 14.367283 -19.491137 118.419647 -4.257089 0.609827 92.579636
8 89.356956 14.367283 -19.491137 118.409554 -4.009622 0.744981 92.579636
[R_front_hand03_01]
7 87.286232 -22.307278 -0.143439 -0.387970 -0.231462 4.232001 90.091743
8 87.286232 -22.307278 -0.143439 -0.387409 -0.232399 3.954867 90.091743
[R_front_hand01_02]
7 71.020905 0.000060 0.000119 0.001809 0.001496 10.799234 71.020905
8 71.020905 0.000060 0.000119 0.001832 0.001468 12.589008 71.020905
[R_front_hand02_02]
7 71.020844 -0.000030 -0.000119 0.001809 0.001496 10.799234 71.020836
8 71.020844 -0.000030 -0.000119 0.001832 0.001468 12.589008 71.020836
[R_front_hand03_02]
7 71.020905 0.000000 0.000030 0.001809 0.001496 10.799234 71.020905
8 71.020905 0.000000 0.000030 0.001832 0.001468 12.589008 71.020905
[null_rope01_connect]
7 328.732483 0.000000 -0.000238 -160.980164 54.848278 -112.938034 328.732483
8 328.732483 0.000000 -0.000238 151.969040 84.276863 -160.781250 328.732483
[Rope1_Seg01]
7 0.000000 0.000000 0.000000 73.543709 -47.574940 -147.162964 0.000000
8 0.000000 0.000000 0.000000 24.814745 -50.738232 -94.715797 0.000000
[Rope1_Seg02]
7 139.999863 -0.000179 0.000000 -12.898884 -29.531208 55.524952 139.999863
8 139.999863 -0.000179 0.000000 -0.867172 -11.076103 45.478039 139.999863
[Rope1_Seg03]
7 139.999924 0.000060 -0.000060 18.399357 -16.982792 28.888742 139.999924
8 139.999924 0.000060 -0.000060 20.245243 -6.540092 33.916874 139.999924
[Rope1_Seg04]
7 139.999924 -0.000060 -0.000119 143.668945 -10.023920 25.158016 139.999924
8 139.999924 -0.000060 -0.000119 54.911430 5.340155 29.354300 139.999924
[Rope1_Seg05]
7 139.999832 0.000119 -0.000060 5.733735 9.750387 -6.381275 139.999832
8 139.999832 0.000119 -0.000060 32.021000 20.118032 10.130848 139.999832
[Rope1_Seg06]
7 139.999954 0.000119 -0.000060 0.909562 3.664169 -3.186108 139.999954
8 139.999954 0.000119 -0.000060 5.485522 7.552248 -0.603629 139.999954
[Rope1_Seg07]
7 139.999985 0.000060 0.000000 0.434632 2.170793 -1.954008 139.999985
8 139.999985 0.000060 0.000000 2.346490 4.078735 -0.726554 139.999985
[Rope1_Seg09]
7 121.602913 0.000119 -0.000089 -89.793175 -1.359789 0.847147 121.602913
8 121.602913 0.000119 -0.000089 -89.793175 -1.359789 0.847147 121.602913
[L_mid_hand01]
7 103.859421 1.038730 8.195221 107.640724 -35.120052 -10.901268 104.187431
8 103.859421 1.038730 8.195221 104.690979 -12.127199 -3.683529 104.187431
[L_mid_hand02]
7 105.572853 -4.139662 -10.864139 -143.987701 28.191181 -32.423386 106.211075
8 105.572853 -4.139662 -10.864139 -136.986465 12.817510 -12.781226 106.211075
[L_mid_hand03]
7 104.641464 17.579376 -3.913581 -15.413661 10.840238 38.196957 106.179977
8 104.641464 17.579376 -3.913581 -18.393948 3.792097 15.147139 106.179977
[null_rope02_connect]
7 328.732849 0.000179 -0.000119 3.324992 19.183573 126.592056 328.732849
8 328.732849 0.000179 -0.000119 5.049814 -9.800290 140.204330 328.732849
[Rope2_Seg01]
7 -0.000006 0.000085 0.000087 94.470032 7.874756 -140.195160 0.000122
8 -0.000001 0.000087 0.000082 100.020882 -15.364058 -152.672592 0.000120
[Rope2_Seg02]
7 139.999741 -0.000060 -0.000119 -2.617975 -22.980305 4.709643 139.999756
8 139.999741 -0.000060 -0.000119 0.151645 -19.443422 12.333279 139.999756
[Rope2_Seg03]
7 140.000107 0.000030 0.000000 -36.989735 -48.164539 7.534148 140.000107
8 140.000107 0.000030 0.000000 125.362465 -41.051582 31.322859 140.000107
[Rope2_Seg04]
7 139.999802 0.000000 -0.000060 -77.303864 -23.918785 -13.087827 139.999802
8 139.999802 0.000000 -0.000060 29.873840 27.235392 6.414191 139.999802
[Rope2_Seg05]
7 139.999985 -0.000060 0.000119 -27.250816 -1.547608 -14.736441 139.999985
8 139.999985 -0.000060 0.000119 -4.901759 11.255772 -9.549029 139.999985
[Rope2_Seg06]
7 139.999893 -0.000030 -0.000119 -15.971098 3.090066 -14.299352 139.999893
8 139.999893 -0.000030 -0.000119 -4.439439 10.274065 -10.698004 139.999893
[Rope2_Seg07]
7 139.999893 0.000060 -0.000060 -4.476769 4.706284 -6.635434 139.999893
8 139.999893 0.000060 -0.000060 -0.950657 6.767988 -4.698179 139.999893
[Rope2_Seg09]
7 121.338966 0.000089 -0.000060 33.793236 -1.359788 -0.847141 121.338966
8 121.338966 0.000089 -0.000060 33.793236 -1.359788 -0.847141 121.338966
[R_mid_hand01]
7 104.680779 11.144459 -10.335981 -40.238312 27.648584 31.465513 105.778534
8 104.680779 11.144459 -10.335981 -46.282280 11.920233 13.898090 105.778534
[R_mid_hand02]
7 104.070427 2.443552 8.231699 72.145821 -35.985065 11.253941 104.424065
8 104.070427 2.443552 8.231699 75.179291 -14.113796 4.227930 104.424065
[R_mid_hand03]
7 106.028137 -11.221827 -5.996406 -168.523941 10.951766 -40.389626 106.788818
8 106.028137 -11.221827 -5.996406 -165.232071 5.716876 -17.994635 106.788818
[spine02]
7 129.756927 0.001550 0.000119 -0.245322 -4.052060 -4.355547 129.756927
8 129.756927 0.001550 0.000119 -0.245322 -4.052059 -4.355546 129.756927
[spine03]
7 78.613701 0.087164 -4.898774 0.369659 4.260735 -4.885721 78.766228
8 78.613693 0.087170 -4.898769 0.369659 4.260734 -4.885720 78.766220
[pelvis]
7 169.435242 0.051022 0.000000 -0.010082 -0.196353 -1.806051 169.435257
8 169.435242 0.051022 0.000000 -0.010095 -0.196353 -1.798632 169.435257
[null_rope03_connect]
7 -1.257226 -2.466202 137.391083 -151.347549 16.363482 -73.212753 137.418976
8 -1.257226 -2.466202 137.391083 -149.707458 44.761036 -71.413605 137.418976
[null_rope04_connect]
7 -1.259640 -2.480268 -137.844437 -151.347549 16.363482 -73.212753 137.872513
8 -1.259640 -2.480268 -137.844437 -149.707458 44.761036 -71.413605 137.872513
[Rope3_Seg01]
7 0.000000 0.000000 0.000000 -114.206612 32.337940 -44.716408 0.000000
8 0.000000 0.000000 0.000000 -135.496201 41.606045 -79.178001 0.000000
[Rope3_Seg02]
7 139.999924 -0.000119 0.000060 2.838256 -9.919649 12.324079 139.999924
8 139.999924 -0.000119 0.000060 -3.867135 -5.150517 13.256536 139.999924
[Rope3_Seg03]
7 139.999924 -0.000119 0.000119 0.159444 -14.886404 21.347155 139.999924
8 139.999924 -0.000119 0.000119 -14.715320 -11.170839 25.380323 139.999924
[Rope3_Seg04]
7 139.999924 0.000119 0.000000 -3.461056 -13.265170 20.345074 139.999924
8 139.999924 0.000119 0.000000 -24.142557 -17.149742 24.201973 139.999924
[Rope3_Seg05]
7 139.999924 -0.000238 0.000060 -8.626440 -13.203465 24.359200 139.999924
8 139.999924 -0.000238 0.000060 -22.627060 -23.345636 16.126400 139.999924
[Rope3_Seg06]
7 139.999893 -0.000119 -0.000060 -9.335784 -11.318379 17.385239 139.999893
8 139.999893 -0.000119 -0.000060 -9.959968 -19.300280 4.841731 139.999893
[Rope3_Seg07]
7 139.999771 0.000060 -0.000119 -4.061869 -5.908833 6.443362 139.999771
8 139.999771 0.000060 -0.000119 -2.320540 -8.278542 0.635833 139.999771
[Rope3_Seg08]
7 139.999985 -0.000060 0.000000 -1.868662 -3.258419 3.108306 139.999985
8 139.999985 -0.000060 0.000000 -0.622627 -4.222147 0.153287 139.999985
[Rope3_Seg09]
7 90.185997 -0.000179 -0.000060 89.793228 -1.359877 -0.847183 90.185997
8 90.185997 -0.000179 -0.000060 89.793228 -1.359877 -0.847183 90.185997
[R_rear_hand01]
7 103.366196 -6.073594 -10.757982 -166.970291 21.129854 -46.704182 104.101845
8 103.366196 -6.073594 -10.757982 -166.970291 21.129854 -46.704182 104.101845
[R_rear_hand02]
7 100.509819 12.039542 -7.992327 -28.148870 27.804201 44.102722 101.543350
8 100.509819 12.039542 -7.992327 -28.148870 27.804201 44.102722 101.543350
[R_rear_hand03]
7 101.539970 5.215704 5.435467 81.628380 -47.127724 10.016966 101.819031
8 101.539970 5.215704 5.435467 81.628380 -47.127724 10.016966 101.819031
[Rope4_Seg01]
7 0.000000 0.000000 0.000000 -4.411784 -37.769493 -32.048771 0.000000
8 0.000000 0.000000 0.000000 21.089329 -15.795246 -46.677673 0.000000
[Rope4_Seg02]
7 139.999985 0.000060 0.000119 -33.424641 19.875391 39.720394 139.999985
8 139.999985 0.000060 0.000119 76.323700 41.109299 21.738806 139.999985
[Rope4_Seg03]
7 139.999924 0.000000 -0.000238 -56.620747 -7.681403 33.654251 139.999924
8 139.999924 0.000000 -0.000238 99.989899 30.454044 -29.714079 139.999924
[Rope4_Seg04]
7 139.999985 0.000000 0.000119 -12.182148 -12.269483 6.645083 139.999985
8 139.999985 0.000000 0.000119 -1.437749 -14.414039 -4.593956 139.999985
[Rope4_Seg05]
7 139.999802 -0.000060 -0.000119 -7.979902 -10.983811 5.507906 139.999802
8 139.999802 -0.000060 -0.000119 -3.140267 -14.679637 -0.232249 139.999802
[Rope4_Seg06]
7 139.999924 0.000000 0.000060 -4.309507 -9.208034 3.288583 139.999924
8 139.999924 0.000000 0.000060 -0.957843 -10.645146 -0.897591 139.999924
[Rope4_Seg07]
7 139.999802 0.000000 0.000000 -1.688757 -5.788828 1.305402 139.999802
8 139.999802 0.000000 0.000000 -0.064105 -6.100139 -1.089483 139.999802
[Rope4_Seg08]
7 139.999924 0.000000 0.000119 -2.351241 -3.600613 0.704124 139.999924
8 139.999924 0.000000 0.000119 -1.496208 -3.682641 -0.662846 139.999924
[Rope4_Seg09]
7 90.185791 0.000060 0.000060 -135.617828 2.228885 0.850567 90.185791
8 90.185791 0.000060 0.000060 -135.617828 2.228885 0.850567 90.185791
[L_rear_hand01]
7 101.696655 -8.392275 -7.654577 -27.705481 -28.251705 134.947800 102.329041
8 101.696655 -8.392275 -7.654577 -27.705481 -28.251705 134.947800 102.329041
[L_rear_hand02]
7 102.726799 -1.568258 5.773216 81.477219 48.065086 169.775513 102.900848
8 102.726799 -1.568258 5.773216 81.477219 48.065086 169.775513 102.900848
[L_rear_hand03]
7 104.552910 9.721220 -10.420293 -167.330078 -21.338425 -132.303940 105.519653
8 104.552910 9.721220 -10.420293 -167.330078 -21.338425 -132.303940 105.519653
